M48
; DRILL file {KiCad 5.1.5+dfsg1-2build2} date Mon 27 May 2024 05:28:10 PM EDT
; FORMAT={-:-/ absolute / inch / decimal}
; #@! TF.CreationDate,2024-05-27T17:28:10-04:00
; #@! TF.GenerationSoftware,Kicad,Pcbnew,5.1.5+dfsg1-2build2
; #@! TF.FileFunction,NonPlated,1,2,NPTH
FMAT,2
INCH
T1C0.0197
%
G90
G05
T1
X10.6102Y-2.4488
X10.6398Y-2.4488
X10.6693Y-2.4488
X10.6988Y-2.4488
X10.7283Y-2.4488
X10.7579Y-2.4488
X10.7874Y-2.4488
X10.8169Y-2.4488
X10.8465Y-2.4488
X10.876Y-2.4488
X10.876Y-2.4488
X10.9055Y-2.4488
X1.8799Y-2.4488
X1.9094Y-2.4488
X1.939Y-2.4488
X1.9685Y-2.4488
X1.998Y-2.4488
X2.0276Y-2.4488
X2.0571Y-2.4488
X2.0866Y-2.4488
X2.1161Y-2.4488
X2.1457Y-2.4488
X2.1457Y-2.4488
X2.1752Y-2.4488
X5.2854Y-2.4488
X5.315Y-2.4488
X5.3445Y-2.4488
X5.374Y-2.4488
X5.4035Y-2.4488
X5.4331Y-2.4488
X5.4626Y-2.4488
X5.4921Y-2.4488
X5.5217Y-2.4488
X5.5512Y-2.4488
X5.5512Y-2.4488
X5.5807Y-2.4488
X3.5846Y-2.4488
X3.6142Y-2.4488
X3.6437Y-2.4488
X3.6732Y-2.4488
X3.7028Y-2.4488
X3.7323Y-2.4488
X3.7618Y-2.4488
X3.7913Y-2.4488
X3.8209Y-2.4488
X3.8504Y-2.4488
X3.8504Y-2.4488
X3.8799Y-2.4488
X0.4331Y-2.4449
X9.0728Y-2.4488
X9.1024Y-2.4488
X9.1319Y-2.4488
X9.1614Y-2.4488
X9.1909Y-2.4488
X9.2205Y-2.4488
X9.25Y-2.4488
X9.2795Y-2.4488
X9.3091Y-2.4488
X9.3386Y-2.4488
X9.3386Y-2.4488
X9.3681Y-2.4488
X0.5531Y-2.4488
X0.5827Y-2.4488
X0.6122Y-2.4488
X0.6417Y-2.4488
X0.6713Y-2.4488
X0.7008Y-2.4488
X0.7303Y-2.4488
X0.7598Y-2.4488
X0.7894Y-2.4488
X0.8189Y-2.4488
X0.8189Y-2.4488
X0.8484Y-2.4488
X0.4921Y-2.4449
X0.5217Y-2.4449
X7.1752Y-2.4488
X7.2047Y-2.4488
X7.2343Y-2.4488
X7.2638Y-2.4488
X7.2933Y-2.4488
X7.3228Y-2.4488
X7.3524Y-2.4488
X7.3819Y-2.4488
X7.4114Y-2.4488
X7.4409Y-2.4488
X7.4409Y-2.4488
X7.4705Y-2.4488
X0.4035Y-2.4449
X0.4626Y-2.4449
T0
M30
