G04 #@! TF.GenerationSoftware,KiCad,Pcbnew,5.1.5+dfsg1-2build2*
G04 #@! TF.CreationDate,2024-05-27T17:28:11-04:00*
G04 #@! TF.ProjectId,anemometer_board,616e656d-6f6d-4657-9465-725f626f6172,rev?*
G04 #@! TF.SameCoordinates,Original*
G04 #@! TF.FileFunction,Copper,L2,Bot*
G04 #@! TF.FilePolarity,Positive*
%FSLAX46Y46*%
G04 Gerber Fmt 4.6, Leading zero omitted, Abs format (unit mm)*
G04 Created by KiCad (PCBNEW 5.1.5+dfsg1-2build2) date 2024-05-27 17:28:11*
%MOMM*%
%LPD*%
G04 APERTURE LIST*
%ADD10R,8.000000X1.000000*%
%ADD11R,1.700000X1.700000*%
%ADD12O,1.700000X1.700000*%
%ADD13C,0.800000*%
%ADD14C,0.600000*%
%ADD15C,0.450000*%
G04 APERTURE END LIST*
D10*
X282800000Y-61400000D03*
X282800000Y-59400000D03*
X282800000Y-57400000D03*
D11*
X27000000Y-59700000D03*
D12*
X24460000Y-59700000D03*
X21920000Y-59700000D03*
X19380000Y-59700000D03*
X16840000Y-59700000D03*
X14300000Y-59700000D03*
X11760000Y-59700000D03*
D13*
X275400000Y-59400000D03*
X265300000Y-59400000D03*
X185300000Y-60350000D03*
X193600000Y-60350000D03*
X185350000Y-58100000D03*
X269500000Y-58100000D03*
X271000000Y-57050000D03*
X32700000Y-59225000D03*
D14*
X275400000Y-59400000D02*
X265300000Y-59400000D01*
X28300000Y-59700000D02*
X27000000Y-59700000D01*
X29300000Y-60350000D02*
X28300000Y-59700000D01*
X185300000Y-60350000D02*
X193600000Y-60350000D01*
X185300000Y-60350000D02*
X29300000Y-60350000D01*
X185350000Y-58100000D02*
X269350000Y-58100000D01*
D15*
X269500000Y-58100000D02*
X269662081Y-58237919D01*
D14*
X273700000Y-57400000D02*
X282800000Y-57400000D01*
X273100000Y-58100000D02*
X273700000Y-57400000D01*
X269500000Y-58100000D02*
X273100000Y-58100000D01*
X17400000Y-57937919D02*
X16840000Y-58497919D01*
X16840000Y-58497919D02*
X16840000Y-59700000D01*
X17400000Y-57937919D02*
X29787919Y-57937919D01*
X29950000Y-58100000D02*
X30500000Y-58100000D01*
X29787919Y-57937919D02*
X29950000Y-58100000D01*
X185350000Y-58100000D02*
X30500000Y-58100000D01*
D15*
X12400000Y-57050000D02*
X271000000Y-57050000D01*
X11760000Y-57640000D02*
X12400000Y-57050000D01*
X11760000Y-59700000D02*
X11760000Y-57640000D01*
X14300000Y-60900000D02*
X15300000Y-61400000D01*
X14300000Y-59150000D02*
X14300000Y-60900000D01*
X282800000Y-61400000D02*
X15300000Y-61400000D01*
X278350000Y-59400000D02*
X282800000Y-59400000D01*
X277250000Y-60500000D02*
X278350000Y-59400000D01*
X219600000Y-60500000D02*
X277250000Y-60500000D01*
X217600000Y-59225000D02*
X219600000Y-60500000D01*
X32700000Y-59225000D02*
X217600000Y-59225000D01*
M02*
